HIERARCHY
ROOT Hips
{
	OFFSET 0.000000 88.474243 0.000000
	CHANNELS 6 Xposition Yposition Zposition Zrotation Yrotation Xrotation 
	JOINT Hips_Spine
	{
		OFFSET 0.000000 0.000000 0.000000
		CHANNELS 3 Zrotation Yrotation Xrotation
		JOINT Spine
		{
			OFFSET 0.005100 8.711998 -0.691000
			CHANNELS 3 Zrotation Yrotation Xrotation
			JOINT Spine1
			{
				OFFSET -0.009200 8.660301 -1.275000
				CHANNELS 3 Zrotation Yrotation Xrotation
				JOINT Spine2
				{
					OFFSET 0.006300 9.852501 -1.857000
					CHANNELS 3 Zrotation Yrotation Xrotation
					JOINT Spine2_Neck
					{
						OFFSET 0.000000 0.000000 0.000000
						CHANNELS 3 Zrotation Yrotation Xrotation
						JOINT Neck
						{
							OFFSET 0.016300 11.420799 -0.263300
							CHANNELS 3 Zrotation Yrotation Xrotation
							End Site #name: Head
							{
								OFFSET -0.019200 9.262405 2.362500
							}
						}
					}
					JOINT Spine2_LeftShoulder
					{
						OFFSET 0.000000 0.000000 0.000000
						CHANNELS 3 Zrotation Yrotation Xrotation
						JOINT LeftShoulder
						{
							OFFSET 5.616900 6.732201 -0.345700
							CHANNELS 3 Zrotation Yrotation Xrotation
							JOINT LeftArm
							{
								OFFSET 10.664888 -0.183372 -2.440700
								CHANNELS 3 Zrotation Yrotation Xrotation
								JOINT LeftForeArm
								{
									OFFSET 27.459126 0.000000 0.000000
									CHANNELS 3 Zrotation Yrotation Xrotation
									End Site #name: LeftHand
									{
										OFFSET 21.306858 0.000000 0.000000
									}
								}
							}
						}
					}
					JOINT Spine2_RightShoulder
					{
						OFFSET 0.000000 0.000000 0.000000
						CHANNELS 3 Zrotation Yrotation Xrotation
						JOINT RightShoulder
						{
							OFFSET -5.580300 6.737503 -0.344400
							CHANNELS 3 Zrotation Yrotation Xrotation
							JOINT RightArm
							{
								OFFSET -10.679335 -0.188484 -2.383900
								CHANNELS 3 Zrotation Yrotation Xrotation
								JOINT RightForeArm
								{
									OFFSET -27.503529 0.000000 0.000000
									CHANNELS 3 Zrotation Yrotation Xrotation
									End Site #name: RightHand
									{
										OFFSET -21.306808 0.000000 0.000000
									}
								}
							}
						}
					}
				}
			}
		}
	}
	JOINT Hips_LeftUpLeg
	{
		OFFSET 0.000000 0.000000 0.000000
		CHANNELS 3 Zrotation Yrotation Xrotation
		JOINT LeftUpLeg
		{
			OFFSET 6.857700 -6.739601 0.312100
			CHANNELS 3 Zrotation Yrotation Xrotation
			JOINT LeftLeg
			{
				OFFSET -0.367590 -34.731552 -4.572400
				CHANNELS 3 Zrotation Yrotation Xrotation
				End Site #name: LeftFoot
				{
					OFFSET 0.367590 -34.656704 -6.067400
				}
			}
		}
	}
	JOINT Hips_RightUpLeg
	{
		OFFSET 0.000000 0.000000 0.000000
		CHANNELS 3 Zrotation Yrotation Xrotation
		JOINT RightUpLeg
		{
			OFFSET -6.876100 -6.733299 0.301000
			CHANNELS 3 Zrotation Yrotation Xrotation
			JOINT RightLeg
			{
				OFFSET 0.347353 -34.795158 -4.515900
				CHANNELS 3 Zrotation Yrotation Xrotation
				End Site #name: RightFoot
				{
					OFFSET -0.347353 -34.589367 -6.070300
				}
			}
		}
	}
}
MOTION
Frames: 18
Frame Time: 0.041667
0.025387 -0.018998 -0.076806 -178.819702 57.591606 -175.260358 -0.000000 -0.000000 0.000000 -3.702417 3.005849 -1.013953 1.224386 -0.483713 0.855188 0.000000 0.000000 0.000000 0.800755 -1.105895 -2.246802 -1.846027 -7.111063 -1.684935 0.732106 -0.202752 -0.999711 -3.637292 -7.148861 1.528686 -78.512319 -8.202790 10.500546 0.812420 -17.476063 3.273192 0.509958 -0.796731 -0.881855 18.670622 13.141269 4.216333 51.144787 11.661526 -11.052708 -6.148777 70.036890 -0.119168 0.000000 -0.000000 0.000000 -7.580245 18.818051 -14.988442 -6.365832 -36.247965 -0.089062 -0.000000 -0.000000 -0.000000 -9.937462 -30.059105 -6.415385 -15.305898 -11.153912 14.619240 
-0.224155 -0.182270 -0.144177 177.883272 65.195022 -176.940691 -0.000000 -0.000000 0.000000 -5.421911 1.996399 1.313647 1.600542 -0.719246 -0.041047 0.000000 0.000000 0.000000 1.477514 -0.810969 -1.987570 -0.809383 -13.799011 -0.953030 0.956669 -0.392460 -1.636005 -2.502396 -8.558214 1.721099 -84.154759 -15.058156 6.129861 -1.102368 -13.995153 1.501746 1.411162 -1.152566 0.184336 24.283145 15.805379 4.814090 50.654365 10.669008 -11.618415 -4.978127 54.517392 0.566970 -0.000000 -0.000000 -0.000000 -6.037659 19.210524 -12.996169 -3.271028 -34.012305 -5.730975 -0.000000 -0.000000 -0.000000 -10.503067 -34.868415 -5.180816 -13.545559 -8.325145 13.985444 
-0.230329 -0.245697 -0.170401 176.711089 54.890009 -177.910331 -0.000000 -0.000000 0.000000 -6.315755 -0.972094 1.777674 1.952697 -0.847391 -0.354320 0.000000 0.000000 0.000000 1.991560 -1.038289 -2.021300 -0.763009 -22.257680 -0.978065 1.055434 -0.419380 -2.055258 -1.324358 -7.395147 1.031517 -85.731934 -16.159573 0.655180 -0.850068 -7.727491 2.061914 1.836658 -1.330360 -1.057492 25.801594 17.784245 5.668253 51.355078 10.680925 -7.107062 -3.363420 51.588066 3.382669 -0.000000 0.000000 -0.000000 -4.806464 20.013839 -11.819576 -2.334319 -33.090857 -7.438966 -0.000000 -0.000000 -0.000000 -11.199635 -39.326866 -3.029979 -13.671989 -8.967486 14.731703 
-0.101549 -0.291985 -0.195163 177.466580 43.600001 -177.945878 -0.000000 -0.000000 0.000000 -6.115760 -2.059040 2.529957 1.657827 -1.198459 -0.692124 0.000000 0.000000 0.000000 1.979710 -1.418744 -1.842618 -1.300329 -26.830016 -1.054059 0.945457 -0.665347 -2.261438 -0.977644 -6.297031 0.646304 -86.458696 -17.428534 -1.258635 -0.517111 -4.641788 2.335792 1.639100 -1.800261 -1.074173 24.898794 17.616741 5.749397 51.677132 11.848662 -4.851082 -1.860021 51.461013 4.858801 -0.000000 0.000000 -0.000000 -4.050935 20.703509 -10.769835 -1.823273 -33.641145 -7.941276 -0.000000 -0.000000 -0.000000 -12.434395 -46.264397 -1.556096 -14.251497 -8.855357 15.745355 
0.039791 -0.319812 -0.265255 177.383376 33.577233 -178.236574 -0.000000 -0.000000 0.000000 -5.401079 -2.353319 2.756778 1.179859 -1.407739 -0.815626 0.000000 0.000000 0.000000 1.756113 -1.660153 -1.321574 -1.236465 -28.761579 -1.296066 0.662217 -0.939356 -2.209970 -1.099455 -5.249191 0.443396 -86.909982 -18.380120 -1.016527 0.455696 -3.181952 3.351841 1.208745 -2.145048 -0.627073 22.944142 16.632920 5.457730 52.008305 13.105781 -2.530623 -1.430113 50.337339 4.539842 -0.000000 0.000000 -0.000000 -3.684520 21.365838 -10.288344 -1.576794 -34.084008 -8.087137 -0.000000 -0.000000 -0.000000 -13.187475 -51.561537 -0.671098 -15.106370 -8.366797 16.761686 
0.191741 -0.325194 -0.369296 176.835400 25.670102 -178.498784 -0.000000 -0.000000 0.000000 -4.565917 -1.979639 2.935515 0.711509 -1.552060 -0.568970 0.000000 0.000000 0.000000 1.436182 -1.748897 -0.621184 -1.020002 -28.608891 -1.819937 0.342945 -1.104668 -1.864130 -1.351633 -4.337424 0.347372 -87.117586 -18.775615 -0.391918 1.480017 -2.860083 4.316458 0.840588 -2.231112 -0.330180 21.164877 15.504770 5.230042 52.549264 13.094886 -0.270400 -1.351010 49.222455 4.036137 -0.000000 0.000000 -0.000000 -3.733250 21.521243 -10.380276 -1.527811 -34.168661 -8.055878 -0.000000 -0.000000 -0.000000 -13.334858 -55.203372 -0.536014 -15.683507 -8.045887 17.354530 
0.348240 -0.307938 -0.492032 176.034087 20.083638 -178.676323 -0.000000 -0.000000 0.000000 -3.914183 -0.774671 3.168759 0.309680 -1.526845 0.003777 0.000000 0.000000 0.000000 1.110465 -1.743953 0.150290 -0.826391 -27.555102 -2.433221 0.142898 -1.134672 -1.501443 -1.621878 -3.588191 0.297850 -87.109068 -19.016774 0.381053 2.305623 -3.389814 5.083913 0.512827 -2.194431 -0.166555 19.611478 14.607740 4.921336 53.175112 11.605636 1.870907 -1.335670 47.871507 3.966639 -0.000000 0.000000 -0.000000 -3.940312 21.235037 -10.818966 -1.568600 -34.049516 -8.071604 -0.000000 -0.000000 -0.000000 -13.243507 -57.313728 -0.788099 -16.088584 -8.273673 17.473784 
0.504672 -0.277372 -0.621351 175.338983 16.097629 -178.727485 -0.000000 -0.000000 0.000000 -3.577537 0.540197 3.481812 0.063040 -1.431277 0.672901 0.000000 0.000000 0.000000 0.791808 -1.676440 0.895947 -0.667294 -26.447081 -2.912150 -0.029265 -1.090929 -1.087969 -1.735308 -3.138950 0.304100 -86.828104 -19.362172 1.126196 2.871465 -4.508874 5.495012 0.233836 -2.132724 0.068748 18.336005 14.085175 4.909702 53.703831 10.081676 3.264160 -1.353156 45.961279 4.102327 -0.000000 0.000000 -0.000000 -4.130235 20.745940 -11.258973 -1.605637 -33.771907 -8.118295 -0.000000 -0.000000 -0.000000 -13.065122 -58.343753 -1.234002 -16.347061 -8.715954 17.308367 
0.659900 -0.241147 -0.748014 174.830928 12.292710 -178.730941 -0.000000 -0.000000 0.000000 -3.511465 1.661867 3.807030 -0.079795 -1.309402 1.195435 0.000000 0.000000 0.000000 0.540755 -1.589637 1.399655 -0.544365 -25.607754 -3.160041 -0.175621 -1.038620 -0.736580 -1.679863 -2.912875 0.360265 -86.356580 -19.722182 1.805733 3.240993 -6.067123 5.368241 0.005974 -2.084731 0.274975 17.460771 14.104353 4.700740 54.267584 8.932155 4.403416 -1.264622 43.034958 4.382824 -0.000000 0.000000 -0.000000 -4.193815 20.288714 -11.433713 -1.624383 -33.577380 -8.186326 -0.000000 -0.000000 -0.000000 -12.893463 -58.623692 -1.621055 -16.356156 -9.186837 16.833959 
0.809529 -0.200745 -0.877690 174.542640 8.542251 -178.730648 -0.000000 -0.000000 0.000000 -3.655466 2.415853 3.985318 -0.194329 -1.214965 1.521584 0.000000 0.000000 0.000000 0.370254 -1.519304 1.731610 -0.310676 -25.369050 -3.244140 -0.272948 -1.006144 -0.506065 -1.521102 -2.818183 0.436750 -85.883405 -20.239058 2.456119 3.577319 -7.994708 4.967862 -0.165395 -2.039601 0.391183 16.889665 14.283787 4.317743 54.658434 8.453567 4.589533 -1.050118 40.672613 4.725113 0.000000 0.000000 -0.000000 -4.146596 19.959019 -11.358484 -1.663164 -33.547623 -8.162056 -0.000000 -0.000000 -0.000000 -12.873267 -58.483632 -1.743356 -16.081598 -9.649891 16.175748 
0.953543 -0.157395 -1.012980 174.413242 4.966095 -178.734778 -0.000000 -0.000000 0.000000 -3.956003 2.725514 4.197612 -0.266580 -1.171832 1.696253 0.000000 0.000000 0.000000 0.261781 -1.467453 1.916214 0.025264 -25.522326 -3.295496 -0.326606 -0.983784 -0.355689 -1.325213 -2.816350 0.505259 -85.455437 -20.871654 3.128188 3.839555 -9.942608 4.309641 -0.281167 -2.024379 0.464146 16.503287 14.423183 3.938996 54.908867 8.539979 4.396239 -0.361993 39.413589 5.288331 0.000000 0.000000 -0.000000 -4.019818 19.717764 -10.957078 -1.701005 -33.643599 -8.222991 -0.000000 -0.000000 -0.000000 -12.931128 -58.080980 -1.752177 -15.584031 -10.080116 15.581804 
1.093956 -0.113072 -1.154184 174.366819 1.751675 -178.740782 -0.000000 -0.000000 0.000000 -4.385244 2.691950 4.498633 -0.307273 -1.201535 1.809871 0.000000 0.000000 0.000000 0.206665 -1.447296 2.034798 0.355595 -25.802985 -3.303916 -0.350962 -0.990380 -0.250125 -1.092331 -2.923144 0.562747 -85.022196 -21.459375 3.879280 4.059593 -11.900080 3.500181 -0.352360 -2.038650 0.518844 16.310387 14.545295 3.694971 55.067113 8.697213 4.112583 0.631568 38.997269 5.959681 0.000000 0.000000 -0.000000 -3.900284 19.473839 -10.270479 -1.668625 -33.928945 -8.546608 -0.000000 -0.000000 -0.000000 -13.025283 -57.539658 -1.752062 -14.981393 -10.555870 15.093926 
1.230532 -0.066783 -1.301834 174.343089 -0.858518 -178.741905 -0.000000 -0.000000 0.000000 -4.839143 2.456192 4.711684 -0.341390 -1.283736 1.886678 0.000000 0.000000 0.000000 0.189963 -1.464623 2.131760 0.603556 -26.132544 -3.243820 -0.355799 -1.033265 -0.172867 -0.840288 -3.098734 0.604183 -84.566967 -21.912799 4.733949 4.301360 -13.951311 2.644860 -0.389902 -2.080441 0.572063 16.291021 14.635810 3.623095 55.193252 8.927890 3.868176 1.363119 39.445339 6.436796 0.000000 0.000000 -0.000000 -3.786054 19.198778 -9.530945 -1.636092 -34.500725 -8.991542 -0.000000 -0.000000 -0.000000 -13.018860 -56.814014 -1.928562 -14.587896 -11.330146 14.870497 
1.363238 -0.018375 -1.453778 174.323784 -2.786785 -178.744919 -0.000000 -0.000000 0.000000 -5.230346 2.104525 4.882562 -0.364878 -1.397218 1.945150 0.000000 0.000000 0.000000 0.199909 -1.505851 2.209238 0.726400 -26.455414 -3.125449 -0.349826 -1.098007 -0.115174 -0.607831 -3.276069 0.632221 -84.110705 -22.215017 5.728569 4.549355 -16.046466 2.104123 -0.403810 -2.154819 0.609421 16.386570 14.773836 3.606526 55.251499 9.199926 3.584596 1.982592 40.304480 6.779790 0.000000 0.000000 -0.000000 -3.678024 18.956070 -8.780907 -1.540246 -35.183042 -9.606359 -0.000000 0.000000 -0.000000 -12.865921 -55.907314 -2.318113 -14.290906 -12.204779 14.851804 
1.491020 0.028656 -1.609117 174.331533 -4.097144 -178.742009 -0.000000 -0.000000 0.000000 -5.495096 1.716753 4.991205 -0.361223 -1.519412 1.993440 0.000000 0.000000 0.000000 0.231530 -1.563158 2.285141 0.819327 -26.781337 -2.976000 -0.337852 -1.176077 -0.072388 -0.405152 -3.412810 0.647632 -83.784619 -22.264512 6.755327 4.712297 -17.747925 1.713714 -0.393664 -2.242758 0.646536 16.494910 14.939346 3.617002 55.296733 9.500588 3.469443 2.291190 41.327634 6.873668 0.000000 0.000000 -0.000000 -3.566142 18.726722 -8.031090 -1.404078 -36.002036 -10.362004 -0.000000 0.000000 -0.000000 -12.636687 -55.024262 -2.782964 -14.020926 -12.964694 14.888583 
1.611793 0.070014 -1.767949 174.367906 -4.939803 -178.728214 -0.000000 -0.000000 0.000000 -5.602241 1.345221 5.029543 -0.335074 -1.637590 2.044912 0.000000 0.000000 0.000000 0.282505 -1.626715 2.364762 0.914920 -27.137746 -2.825153 -0.316287 -1.262666 -0.046398 -0.231328 -3.513754 0.649581 -83.564004 -22.251865 7.557512 4.822916 -19.002836 1.377195 -0.364539 -2.335867 0.689260 16.567746 15.085293 3.633719 55.369292 9.903579 3.452953 2.215203 42.707804 6.694736 0.000000 0.000000 -0.000000 -3.448887 18.502852 -7.319844 -1.212739 -36.818365 -11.199120 -0.000000 0.000000 -0.000000 -12.323698 -54.360672 -3.235121 -13.800113 -13.480590 14.960569 
1.724243 0.105049 -1.930932 174.430102 -5.479668 -178.698091 -0.000000 -0.000000 0.000000 -5.593440 1.020320 5.017980 -0.287111 -1.745511 2.093791 0.000000 0.000000 0.000000 0.346393 -1.689454 2.441738 1.022841 -27.539298 -2.670768 -0.284374 -1.346620 -0.034226 -0.085886 -3.571891 0.640293 -83.464894 -22.211065 8.133335 4.872160 -19.816367 1.080997 -0.320793 -2.426870 0.729208 16.619154 15.208594 3.653460 55.456505 10.292634 3.509137 1.810450 44.303906 6.307030 0.000000 0.000000 -0.000000 -3.323082 18.307698 -6.654544 -0.977508 -37.522329 -12.063209 -0.000000 0.000000 -0.000000 -11.961453 -54.120428 -3.632458 -13.622408 -13.663407 15.088308 
1.828445 0.134274 -2.097240 174.508382 -5.758322 -178.670890 -0.000000 -0.000000 0.000000 -5.467032 0.755644 4.957639 -0.223387 -1.843203 2.136058 0.000000 0.000000 0.000000 0.416245 -1.751931 2.510480 1.137009 -28.010356 -2.507383 -0.246830 -1.426030 -0.030461 0.069559 -3.524076 0.551006 -83.479459 -22.147567 8.541313 4.889330 -20.192019 0.856959 -0.263697 -2.521860 0.763882 16.668083 15.318094 3.678820 55.529144 10.654474 3.622488 1.250229 45.813152 5.825515 0.000000 0.000000 -0.000000 -3.214370 18.142660 -6.053034 -0.713453 -38.078574 -12.915766 -0.000000 0.000000 -0.000000 -11.565506 -54.216306 -3.998342 -13.620032 -13.660003 15.339170 
